<mxfile host="app.diagrams.net" modified="2023-06-05T04:34:04.230Z" agent="Mozilla/5.0 (Macintosh; Intel Mac OS X 10_15_7) AppleWebKit/537.36 (KHTML, like Gecko) Chrome/114.0.0.0 Safari/537.36" etag="v_2UczdM2wLhvzn8l6qc" version="21.1.9" type="device">
  <diagram id="WrZKLb7JwcB53dHam1Ou" name="Page-1">
    <mxGraphModel dx="2462" dy="758" grid="1" gridSize="10" guides="1" tooltips="1" connect="1" arrows="1" fold="1" page="1" pageScale="1" pageWidth="827" pageHeight="1169" math="0" shadow="0">
      <root>
        <mxCell id="0" />
        <mxCell id="1" parent="0" />
        <mxCell id="LWVo2LH_kEMohsG8tE7q-1" value="&lt;b&gt;Google &lt;/b&gt;Cloud Platform" style="fillColor=#F6F6F6;strokeColor=none;shadow=0;gradientColor=none;fontSize=14;align=left;spacing=10;fontColor=#717171;9E9E9E;verticalAlign=top;spacingTop=-4;fontStyle=0;spacingLeft=40;html=1;whiteSpace=wrap;" parent="1" vertex="1">
          <mxGeometry x="-90" y="710" width="840" height="270" as="geometry" />
        </mxCell>
        <mxCell id="LWVo2LH_kEMohsG8tE7q-2" value="" style="shape=mxgraph.gcp2.google_cloud_platform;fillColor=#F6F6F6;strokeColor=none;shadow=0;gradientColor=none;" parent="LWVo2LH_kEMohsG8tE7q-1" vertex="1">
          <mxGeometry width="23" height="20" relative="1" as="geometry">
            <mxPoint x="20" y="10" as="offset" />
          </mxGeometry>
        </mxCell>
        <mxCell id="LWVo2LH_kEMohsG8tE7q-34" value="" style="strokeColor=#dddddd;shadow=1;strokeWidth=1;rounded=1;absoluteArcSize=1;arcSize=2;" parent="LWVo2LH_kEMohsG8tE7q-1" vertex="1">
          <mxGeometry x="26.068000000000005" y="155.45272727272726" width="170" height="49.09090909090909" as="geometry" />
        </mxCell>
        <mxCell id="LWVo2LH_kEMohsG8tE7q-35" value="&lt;font color=&quot;#000000&quot;&gt;Front-end&lt;/font&gt;&lt;br&gt;Compute Engine" style="editableCssRules=.*;html=1;fontColor=#999999;shape=image;verticalLabelPosition=middle;labelBackgroundColor=#ffffff;verticalAlign=middle;labelPosition=right;align=left;spacingLeft=20;part=1;points=[];imageAspect=0;image=data:image/svg+xml,PHN2ZyB4bWxucz0iaHR0cDovL3d3dy53My5vcmcvMjAwMC9zdmciIHhtbG5zOnY9Imh0dHBzOi8vdmVjdGEuaW8vbmFubyIgd2lkdGg9IjIwIiBoZWlnaHQ9IjIwIiB2aWV3Qm94PSIwIDAgMjAgMjAiPiYjeGE7CTxzdHlsZSB0eXBlPSJ0ZXh0L2NzcyI+JiN4YTsJLnN0MHtmaWxsOiM0Mjg1ZjQ7fSYjeGE7CS5zdDF7ZmlsbDojNjY5ZGY2O30mI3hhOwkuc3Qye2ZpbGw6I2FlY2JmYTt9JiN4YTsJPC9zdHlsZT4mI3hhOwk8cGF0aCBjbGFzcz0ic3QyIiBkPSJNNyA3aDZ2Nkg3eiIvPiYjeGE7CTxwYXRoIGNsYXNzPSJzdDEiIGQ9Ik05IDBoMnY0SDl6TTUgMGgydjRINXptOCAwaDJ2NGgtMnoiLz4mI3hhOwk8cGF0aCBjbGFzcz0ic3QwIiBkPSJNOSAxNmgydjRIOXptLTQgMGgydjRINXptOCAwaDJ2NGgtMnptMy01VjloNHYyem0wIDR2LTJoNHYyem0wLThWNWg0djJ6Ii8+JiN4YTsJPHBhdGggY2xhc3M9InN0MSIgZD0iTTAgMTFWOWg0djJ6bTAgNHYtMmg0djJ6bTAtOFY1aDR2MnoiLz4mI3hhOwk8cGF0aCBjbGFzcz0ic3QyIiBkPSJNMyAzdjE0aDE0VjN6bTEyIDEySDVWNWgxMHoiLz4mI3hhOwk8cGF0aCBjbGFzcz0ic3QxIiBkPSJNMTAgMTBsLTMgM2g2eiIvPiYjeGE7CTxwYXRoIGNsYXNzPSJzdDAiIGQ9Ik0xMyA3bC0zIDMgMyAzeiIvPiYjeGE7PC9zdmc+;" parent="LWVo2LH_kEMohsG8tE7q-34" vertex="1">
          <mxGeometry width="30" height="30" relative="1" as="geometry">
            <mxPoint x="15" y="15" as="offset" />
          </mxGeometry>
        </mxCell>
        <mxCell id="LWVo2LH_kEMohsG8tE7q-38" value="Public" style="text;html=1;strokeColor=none;fillColor=none;align=center;verticalAlign=middle;whiteSpace=wrap;rounded=0;" parent="LWVo2LH_kEMohsG8tE7q-1" vertex="1">
          <mxGeometry x="205.33333333333334" y="180" width="56" height="24.545454545454547" as="geometry" />
        </mxCell>
        <mxCell id="LWVo2LH_kEMohsG8tE7q-3" value="&amp;nbsp; &amp;nbsp; &amp;nbsp; &amp;nbsp;&lt;span style=&quot;white-space: pre;&quot;&gt; &lt;/span&gt;&amp;nbsp;&amp;nbsp;VPC" style="sketch=0;points=[[0,0,0],[0.25,0,0],[0.5,0,0],[0.75,0,0],[1,0,0],[1,0.25,0],[1,0.5,0],[1,0.75,0],[1,1,0],[0.75,1,0],[0.5,1,0],[0.25,1,0],[0,1,0],[0,0.75,0],[0,0.5,0],[0,0.25,0]];rounded=1;absoluteArcSize=1;arcSize=2;html=1;strokeColor=none;gradientColor=none;shadow=0;dashed=0;fontSize=12;fontColor=#9E9E9E;align=left;verticalAlign=top;spacing=10;spacingTop=-4;whiteSpace=wrap;fillColor=#E1F5FE;" parent="1" vertex="1">
          <mxGeometry x="290" y="760" width="430" height="185" as="geometry" />
        </mxCell>
        <mxCell id="LWVo2LH_kEMohsG8tE7q-5" value="Region: asia-southest1" style="sketch=0;points=[[0,0,0],[0.25,0,0],[0.5,0,0],[0.75,0,0],[1,0,0],[1,0.25,0],[1,0.5,0],[1,0.75,0],[1,1,0],[0.75,1,0],[0.5,1,0],[0.25,1,0],[0,1,0],[0,0.75,0],[0,0.5,0],[0,0.25,0]];rounded=1;absoluteArcSize=1;arcSize=2;html=1;strokeColor=#82b366;shadow=0;dashed=0;fontSize=12;align=left;verticalAlign=top;spacing=10;spacingTop=-4;whiteSpace=wrap;fillColor=#d5e8d4;" parent="1" vertex="1">
          <mxGeometry x="180" y="810" width="540" height="140" as="geometry" />
        </mxCell>
        <mxCell id="LWVo2LH_kEMohsG8tE7q-8" value="" style="editableCssRules=.*;html=1;shape=image;verticalLabelPosition=bottom;labelBackgroundColor=#ffffff;verticalAlign=top;aspect=fixed;imageAspect=0;image=data:image/svg+xml,PHN2ZyB4bWxucz0iaHR0cDovL3d3dy53My5vcmcvMjAwMC9zdmciIHhtbG5zOnY9Imh0dHBzOi8vdmVjdGEuaW8vbmFubyIgd2lkdGg9IjIwIiBoZWlnaHQ9IjIwIiB2aWV3Qm94PSIwIDAgMjAgMjAiPiYjeGE7CTxzdHlsZSB0eXBlPSJ0ZXh0L2NzcyI+JiN4YTsJLnN0MHtmaWxsOiM0Mjg1ZjQ7fSYjeGE7CS5zdDF7ZmlsbDojNjY5ZGY2O30mI3hhOwkuc3Qye2ZpbGw6I2FlY2JmYTt9JiN4YTsJPC9zdHlsZT4mI3hhOwk8cGF0aCBjbGFzcz0ic3QyIiBkPSJNMTQgMGg2djZoLTZ6Ii8+JiN4YTsJPHBhdGggY2xhc3M9InN0MSIgZD0iTTE3IDBoM3Y2aC0zeiIvPiYjeGE7CTxwYXRoIGNsYXNzPSJzdDIiIGQ9Ik0xNCAxNGg2djZoLTZ6Ii8+JiN4YTsJPHBhdGggY2xhc3M9InN0MSIgZD0iTTE3IDE0aDN2NmgtM3oiLz4mI3hhOwk8cGF0aCBjbGFzcz0ic3QyIiBkPSJNMCAwaDZ2NkgweiIvPiYjeGE7CTxwYXRoIGNsYXNzPSJzdDEiIGQ9Ik0zIDBoM3Y2SDN6Ii8+JiN4YTsJPHBhdGggY2xhc3M9InN0MiIgZD0iTTAgMTRoNnY2SDB6Ii8+JiN4YTsJPGcgY2xhc3M9InN0MSI+JiN4YTsJCTxwYXRoIGQ9Ik0zIDE0aDN2Nkgzek02IDJoOHYySDZ6Ii8+JiN4YTsJCTxwYXRoIGQ9Ik02IDE2aDh2Mkg2ek0xNiA2aDJ2OGgtMnpNMiA2aDJ2OEgyeiIvPiYjeGE7CTwvZz4mI3hhOwk8cGF0aCBjbGFzcz0ic3QwIiBkPSJNMiA2aDJ2Mkgyem0xNCAwaDJ2MmgtMnpNNiAyaDJ2Mkg2em0wIDE0aDJ2Mkg2eiIvPiYjeGE7PC9zdmc+;" parent="1" vertex="1">
          <mxGeometry x="290" y="760" width="40" height="40" as="geometry" />
        </mxCell>
        <mxCell id="LWVo2LH_kEMohsG8tE7q-24" value="" style="edgeStyle=orthogonalEdgeStyle;rounded=0;orthogonalLoop=1;jettySize=auto;html=1;" parent="1" source="LWVo2LH_kEMohsG8tE7q-11" target="LWVo2LH_kEMohsG8tE7q-20" edge="1">
          <mxGeometry relative="1" as="geometry" />
        </mxCell>
        <mxCell id="LWVo2LH_kEMohsG8tE7q-25" value="" style="edgeStyle=orthogonalEdgeStyle;rounded=0;orthogonalLoop=1;jettySize=auto;html=1;" parent="1" source="LWVo2LH_kEMohsG8tE7q-11" target="LWVo2LH_kEMohsG8tE7q-20" edge="1">
          <mxGeometry relative="1" as="geometry" />
        </mxCell>
        <mxCell id="LWVo2LH_kEMohsG8tE7q-11" value="" style="strokeColor=#dddddd;shadow=1;strokeWidth=1;rounded=1;absoluteArcSize=1;arcSize=2;" parent="1" vertex="1">
          <mxGeometry x="560" y="860" width="130" height="60" as="geometry" />
        </mxCell>
        <mxCell id="LWVo2LH_kEMohsG8tE7q-12" value="&lt;font color=&quot;#000000&quot;&gt;private sql&lt;/font&gt;&lt;br&gt;Cloud SQL&lt;br&gt;10.4.0.2" style="editableCssRules=.*;html=1;fontColor=#999999;shape=image;verticalLabelPosition=middle;labelBackgroundColor=#ffffff;verticalAlign=middle;labelPosition=right;align=left;spacingLeft=20;part=1;points=[];imageAspect=0;image=data:image/svg+xml,PHN2ZyB4bWxucz0iaHR0cDovL3d3dy53My5vcmcvMjAwMC9zdmciIHhtbG5zOnY9Imh0dHBzOi8vdmVjdGEuaW8vbmFubyIgd2lkdGg9IjE0LjY1OTk5OTg0NzQxMjExIiBoZWlnaHQ9IjIwIiB2aWV3Qm94PSIwIDAgMTQuNjU5OTk5ODQ3NDEyMTEgMjAiPiYjeGE7CTxzdHlsZSB0eXBlPSJ0ZXh0L2NzcyI+JiN4YTsJLnN0MHtmaWxsOiM0Mjg1ZjQ7fSYjeGE7CS5zdDF7ZmlsbDojNjY5ZGY2O30mI3hhOwkuc3Qye2ZpbGw6I2FlY2JmYTt9JiN4YTsJPC9zdHlsZT4mI3hhOwk8c3R5bGU+JiN4YTsJCS5Ee2ZpbGwtcnVsZTpldmVub2RkfSYjeGE7CTwvc3R5bGU+JiN4YTsJPHBhdGggZD0iTTcuMzMgMTUuMzV2LTMuMDFMMCA4LjQ0djMuMDF6bTAgNC42NXYtMy4wMUwwIDEzLjA5djMuMDF6IiBjbGFzcz0ic3QyIEQiLz4mI3hhOwk8cGF0aCBkPSJNMTQuNjYgOC40NGwtNy4zMyAzLjl2My4wMWw3LjMzLTMuOXptMCA0LjY1bC03LjMzIDMuOVYyMGw3LjMzLTMuOXoiIGNsYXNzPSJzdDEgRCIvPiYjeGE7CTxwYXRoIGQ9Ik03LjMzIDB2My4wMWw3LjMzIDMuOVYzLjl6IiBjbGFzcz0ic3QwIEQiLz4mI3hhOwk8cGF0aCBkPSJNMCA2LjkxbDcuMzMtMy45VjBMMCAzLjl6IiBjbGFzcz0iRCBzdDEiLz4mI3hhOwk8cGF0aCBkPSJNNy4zMyAxMC43OVY3Ljc3TDAgMy44N3YzLjAyeiIgY2xhc3M9IkQgc3QyIi8+JiN4YTsJPHBhdGggZD0iTTE0LjY2IDMuODdsLTcuMzMgMy45djMuMDJsNy4zMy0zLjl6IiBjbGFzcz0iRCBzdDEiLz4mI3hhOzwvc3ZnPg==;" parent="LWVo2LH_kEMohsG8tE7q-11" vertex="1">
          <mxGeometry width="22" height="30" relative="1" as="geometry">
            <mxPoint x="19" y="15" as="offset" />
          </mxGeometry>
        </mxCell>
        <mxCell id="LWVo2LH_kEMohsG8tE7q-18" value="" style="edgeStyle=orthogonalEdgeStyle;rounded=0;orthogonalLoop=1;jettySize=auto;html=1;" parent="1" source="LWVo2LH_kEMohsG8tE7q-14" target="LWVo2LH_kEMohsG8tE7q-12" edge="1">
          <mxGeometry relative="1" as="geometry" />
        </mxCell>
        <mxCell id="LWVo2LH_kEMohsG8tE7q-22" style="edgeStyle=orthogonalEdgeStyle;rounded=0;orthogonalLoop=1;jettySize=auto;html=1;" parent="1" source="LWVo2LH_kEMohsG8tE7q-14" target="LWVo2LH_kEMohsG8tE7q-16" edge="1">
          <mxGeometry relative="1" as="geometry" />
        </mxCell>
        <mxCell id="LWVo2LH_kEMohsG8tE7q-23" value="" style="edgeStyle=orthogonalEdgeStyle;rounded=0;orthogonalLoop=1;jettySize=auto;html=1;" parent="1" source="LWVo2LH_kEMohsG8tE7q-14" target="LWVo2LH_kEMohsG8tE7q-15" edge="1">
          <mxGeometry relative="1" as="geometry" />
        </mxCell>
        <mxCell id="LWVo2LH_kEMohsG8tE7q-14" value="" style="shape=image;verticalLabelPosition=bottom;labelBackgroundColor=default;verticalAlign=top;aspect=fixed;imageAspect=0;image=https://uploads-ssl.webflow.com/625540b970bc1b4035617258/626a7ba5300a021477e85af0_60b6467774f6c552e2419497_Cloud%2520Run%2520and%2520Cloud%2520SQL_thumbnail.jpeg;" parent="1" vertex="1">
          <mxGeometry x="395.75" y="852.9" width="108.5" height="74.19" as="geometry" />
        </mxCell>
        <mxCell id="LWVo2LH_kEMohsG8tE7q-17" value="" style="edgeStyle=orthogonalEdgeStyle;rounded=0;orthogonalLoop=1;jettySize=auto;html=1;" parent="1" source="LWVo2LH_kEMohsG8tE7q-15" target="LWVo2LH_kEMohsG8tE7q-14" edge="1">
          <mxGeometry relative="1" as="geometry" />
        </mxCell>
        <mxCell id="LWVo2LH_kEMohsG8tE7q-31" style="edgeStyle=orthogonalEdgeStyle;rounded=0;orthogonalLoop=1;jettySize=auto;html=1;" parent="1" source="LWVo2LH_kEMohsG8tE7q-15" target="LWVo2LH_kEMohsG8tE7q-28" edge="1">
          <mxGeometry relative="1" as="geometry" />
        </mxCell>
        <mxCell id="LWVo2LH_kEMohsG8tE7q-37" value="" style="edgeStyle=orthogonalEdgeStyle;rounded=0;orthogonalLoop=1;jettySize=auto;html=1;" parent="1" source="LWVo2LH_kEMohsG8tE7q-15" target="LWVo2LH_kEMohsG8tE7q-34" edge="1">
          <mxGeometry relative="1" as="geometry" />
        </mxCell>
        <mxCell id="LWVo2LH_kEMohsG8tE7q-15" value="" style="strokeColor=#dddddd;shadow=1;strokeWidth=1;rounded=1;absoluteArcSize=1;arcSize=2;" parent="1" vertex="1">
          <mxGeometry x="200" y="860" width="140" height="60" as="geometry" />
        </mxCell>
        <mxCell id="LWVo2LH_kEMohsG8tE7q-16" value="&lt;font color=&quot;#000000&quot;&gt;Back-end&lt;/font&gt;&lt;br&gt;App Engine" style="editableCssRules=.*;html=1;fontColor=#999999;shape=image;verticalLabelPosition=middle;labelBackgroundColor=#ffffff;verticalAlign=middle;labelPosition=right;align=left;spacingLeft=20;part=1;points=[];imageAspect=0;image=data:image/svg+xml,PHN2ZyB4bWxucz0iaHR0cDovL3d3dy53My5vcmcvMjAwMC9zdmciIHhtbG5zOnY9Imh0dHBzOi8vdmVjdGEuaW8vbmFubyIgd2lkdGg9IjIwIiBoZWlnaHQ9IjE2LjAyMDAwMDQ1Nzc2MzY3MiIgZmlsbC1ydWxlPSJldmVub2RkIiB2aWV3Qm94PSI4Ljk0MDY5NjcxNjMwODU5NGUtOCAwIDIwIDE2LjAyMDAwMDQ1Nzc2MzY3MiI+JiN4YTsJPHN0eWxlIHR5cGU9InRleHQvY3NzIj4mI3hhOwkuc3Qwe2ZpbGw6IzQyODVmNDt9JiN4YTsJLnN0MXtmaWxsOiNhZWNiZmE7fSYjeGE7CS5zdDJ7ZmlsbDojNjY5ZGY2O30mI3hhOwk8L3N0eWxlPiYjeGE7CTxwYXRoIGNsYXNzPSJzdDAiIGQ9Ik0xMi4zIDcuMjZsLTEuMjIgMS4yMkExLjcxIDEuNzEgMCAwIDEgMTAgMTEuNDlhMS43NCAxLjc0IDAgMCAxLTEuMzMtLjY0bC0xLjIyIDEuMjJhMy40MyAzLjQzIDAgMCAwIDUuOTg0LTEuMzgxQTMuNDMgMy40MyAwIDAgMCAxMi4zIDcuMjZ6Ii8+JiN4YTsJPHBhdGggY2xhc3M9InN0MSIgZD0iTTEwIDMuNTJhNi4yNSA2LjI1IDAgMCAwIDAgMTIuNSA2LjI1IDYuMjUgMCAwIDAgMC0xMi41bTAgMTAuNzRhNC40NSA0LjQ1IDAgMCAxLTMuMTU3LTcuNTk3QTQuNDUgNC40NSAwIDAgMSAxNC40NCA5LjgyIDQuNDQgNC40NCAwIDAgMSAxMCAxNC4yNiIvPiYjeGE7CTxwYXRoIGNsYXNzPSJzdDIiIGQ9Ik0xOS42MiA5LjE2bC0yLjU2LS44MWE3LjEgNy4xIDAgMCAxIC4xNyAxLjUzIDcuNjIgNy42MiAwIDAgMS0uMDggMS4wOGgyLjQ3YS40NC40NCAwIDAgMCAuMzgtLjQydi0xYS40NC40NCAwIDAgMC0uMzgtLjQyTTEwIDIuNzhhNy40OCA3LjQ4IDAgMCAxIDEuNS4xNUwxMC41OC4zOGMtLjA3LS4yMi0uMjEtLjM4LS40Mi0uMzhoLS4zOGEuNDUuNDUgMCAwIDAtLjQyLjM4bC0uOCAyLjU0QTcuNjQgNy42NCAwIDAgMSAxMCAyLjc4bS03LjIzIDcuMWE3LjEgNy4xIDAgMCAxIC4xNy0xLjUzbC0yLjU2LjgxYS40NC40NCAwIDAgMC0uMzguNDJ2MWEuNDQuNDQgMCAwIDAgLjM4LjQyaDIuNDdhNy42MiA3LjYyIDAgMCAxLS4wOC0xLjA4Ii8+JiN4YTsJPHBhdGggY2xhc3M9InN0MSIgZD0iTTEwIDcuMjZhMi41IDIuNSAwIDEgMCAwIDUgMi41IDIuNSAwIDEgMCAwLTV6bTAgMy43NWExLjI1IDEuMjUgMCAxIDEgMC0yLjUgMS4yNSAxLjI1IDAgMCAxIDEuMjUgMS4yNUExLjI1IDEuMjUgMCAwIDEgMTAgMTEuMDJ6Ii8+JiN4YTs8L3N2Zz4=;" parent="LWVo2LH_kEMohsG8tE7q-15" vertex="1">
          <mxGeometry width="30" height="24" relative="1" as="geometry">
            <mxPoint x="15" y="18" as="offset" />
          </mxGeometry>
        </mxCell>
        <mxCell id="LWVo2LH_kEMohsG8tE7q-19" value="10.8.0.2" style="text;html=1;strokeColor=none;fillColor=none;align=center;verticalAlign=middle;whiteSpace=wrap;rounded=0;" parent="1" vertex="1">
          <mxGeometry x="450" y="900" width="60" height="30" as="geometry" />
        </mxCell>
        <mxCell id="LWVo2LH_kEMohsG8tE7q-20" value="Serverless VPC access connector" style="text;html=1;strokeColor=none;fillColor=none;align=center;verticalAlign=middle;whiteSpace=wrap;rounded=0;" parent="1" vertex="1">
          <mxGeometry x="404.25" y="822.9" width="100" height="30" as="geometry" />
        </mxCell>
        <mxCell id="LWVo2LH_kEMohsG8tE7q-26" style="edgeStyle=orthogonalEdgeStyle;rounded=0;orthogonalLoop=1;jettySize=auto;html=1;" parent="1" source="LWVo2LH_kEMohsG8tE7q-12" target="LWVo2LH_kEMohsG8tE7q-14" edge="1">
          <mxGeometry relative="1" as="geometry" />
        </mxCell>
        <mxCell id="LWVo2LH_kEMohsG8tE7q-27" value="AWS" style="points=[[0,0],[0.25,0],[0.5,0],[0.75,0],[1,0],[1,0.25],[1,0.5],[1,0.75],[1,1],[0.75,1],[0.5,1],[0.25,1],[0,1],[0,0.75],[0,0.5],[0,0.25]];outlineConnect=0;gradientColor=none;html=1;whiteSpace=wrap;fontSize=12;fontStyle=0;container=1;pointerEvents=0;collapsible=0;recursiveResize=0;shape=mxgraph.aws4.group;grIcon=mxgraph.aws4.group_aws_cloud_alt;strokeColor=#232F3E;fillColor=none;verticalAlign=top;align=left;spacingLeft=30;fontColor=#232F3E;dashed=0;" parent="1" vertex="1">
          <mxGeometry x="-90" y="1140" width="540" height="190" as="geometry" />
        </mxCell>
        <mxCell id="LWVo2LH_kEMohsG8tE7q-28" value="" style="sketch=0;points=[[0,0,0],[0.25,0,0],[0.5,0,0],[0.75,0,0],[1,0,0],[0,1,0],[0.25,1,0],[0.5,1,0],[0.75,1,0],[1,1,0],[0,0.25,0],[0,0.5,0],[0,0.75,0],[1,0.25,0],[1,0.5,0],[1,0.75,0]];outlineConnect=0;fontColor=#232F3E;gradientColor=#60A337;gradientDirection=north;fillColor=#277116;strokeColor=#ffffff;dashed=0;verticalLabelPosition=bottom;verticalAlign=top;align=center;html=1;fontSize=12;fontStyle=0;aspect=fixed;shape=mxgraph.aws4.resourceIcon;resIcon=mxgraph.aws4.s3;" parent="LWVo2LH_kEMohsG8tE7q-27" vertex="1">
          <mxGeometry x="321" y="60" width="78" height="78" as="geometry" />
        </mxCell>
        <mxCell id="LWVo2LH_kEMohsG8tE7q-33" value="&lt;font style=&quot;font-size: 18px;&quot;&gt;S3&lt;/font&gt;" style="text;html=1;strokeColor=none;fillColor=none;align=center;verticalAlign=middle;whiteSpace=wrap;rounded=0;" parent="LWVo2LH_kEMohsG8tE7q-27" vertex="1">
          <mxGeometry x="330" y="150" width="60" height="30" as="geometry" />
        </mxCell>
        <mxCell id="LWVo2LH_kEMohsG8tE7q-39" value="" style="sketch=0;points=[[0,0,0],[0.25,0,0],[0.5,0,0],[0.75,0,0],[1,0,0],[0,1,0],[0.25,1,0],[0.5,1,0],[0.75,1,0],[1,1,0],[0,0.25,0],[0,0.5,0],[0,0.75,0],[1,0.25,0],[1,0.5,0],[1,0.75,0]];outlineConnect=0;fontColor=#232F3E;gradientColor=#F78E04;gradientDirection=north;fillColor=#D05C17;strokeColor=#ffffff;dashed=0;verticalLabelPosition=bottom;verticalAlign=top;align=center;html=1;fontSize=12;fontStyle=0;aspect=fixed;shape=mxgraph.aws4.resourceIcon;resIcon=mxgraph.aws4.compute;" parent="LWVo2LH_kEMohsG8tE7q-27" vertex="1">
          <mxGeometry x="72.07" y="60" width="78" height="78" as="geometry" />
        </mxCell>
        <mxCell id="LWVo2LH_kEMohsG8tE7q-40" value="&lt;font style=&quot;font-size: 14px;&quot;&gt;Server RabbitMQ&lt;br&gt;EC2&lt;/font&gt;" style="text;html=1;strokeColor=none;fillColor=none;align=center;verticalAlign=middle;whiteSpace=wrap;rounded=0;" parent="LWVo2LH_kEMohsG8tE7q-27" vertex="1">
          <mxGeometry x="30" y="150" width="121" height="30" as="geometry" />
        </mxCell>
        <mxCell id="LWVo2LH_kEMohsG8tE7q-30" style="edgeStyle=orthogonalEdgeStyle;rounded=0;orthogonalLoop=1;jettySize=auto;html=1;" parent="1" source="LWVo2LH_kEMohsG8tE7q-28" target="LWVo2LH_kEMohsG8tE7q-15" edge="1">
          <mxGeometry relative="1" as="geometry" />
        </mxCell>
        <mxCell id="LWVo2LH_kEMohsG8tE7q-32" value="Access key" style="text;html=1;strokeColor=none;fillColor=none;align=center;verticalAlign=middle;whiteSpace=wrap;rounded=0;" parent="1" vertex="1">
          <mxGeometry x="280" y="1030" width="60" height="50" as="geometry" />
        </mxCell>
        <mxCell id="LWVo2LH_kEMohsG8tE7q-36" value="" style="edgeStyle=orthogonalEdgeStyle;rounded=0;orthogonalLoop=1;jettySize=auto;html=1;" parent="1" source="LWVo2LH_kEMohsG8tE7q-34" target="LWVo2LH_kEMohsG8tE7q-16" edge="1">
          <mxGeometry relative="1" as="geometry" />
        </mxCell>
        <mxCell id="LWVo2LH_kEMohsG8tE7q-41" style="edgeStyle=orthogonalEdgeStyle;rounded=0;orthogonalLoop=1;jettySize=auto;html=1;entryX=0.5;entryY=1;entryDx=0;entryDy=0;" parent="1" source="LWVo2LH_kEMohsG8tE7q-39" target="LWVo2LH_kEMohsG8tE7q-34" edge="1">
          <mxGeometry relative="1" as="geometry" />
        </mxCell>
        <mxCell id="LWVo2LH_kEMohsG8tE7q-42" style="edgeStyle=orthogonalEdgeStyle;rounded=0;orthogonalLoop=1;jettySize=auto;html=1;entryX=0.5;entryY=0;entryDx=0;entryDy=0;entryPerimeter=0;" parent="1" source="LWVo2LH_kEMohsG8tE7q-34" target="LWVo2LH_kEMohsG8tE7q-39" edge="1">
          <mxGeometry relative="1" as="geometry" />
        </mxCell>
        <mxCell id="LWVo2LH_kEMohsG8tE7q-43" value="Private IP" style="text;html=1;strokeColor=none;fillColor=none;align=center;verticalAlign=middle;whiteSpace=wrap;rounded=0;" parent="1" vertex="1">
          <mxGeometry x="20" y="1030" width="60" height="30" as="geometry" />
        </mxCell>
        <mxCell id="LWVo2LH_kEMohsG8tE7q-47" style="edgeStyle=orthogonalEdgeStyle;rounded=0;orthogonalLoop=1;jettySize=auto;html=1;" parent="1" source="LWVo2LH_kEMohsG8tE7q-46" target="LWVo2LH_kEMohsG8tE7q-34" edge="1">
          <mxGeometry relative="1" as="geometry" />
        </mxCell>
        <mxCell id="LWVo2LH_kEMohsG8tE7q-46" value="" style="shape=image;verticalLabelPosition=bottom;labelBackgroundColor=default;verticalAlign=top;aspect=fixed;imageAspect=0;image=data:image/png,iVBORw0KGgoAAAANSUhEUgAAAYoAAADECAYAAACBW2a4AAAKrGlDQ1BJQ0MgUHJvZmlsZQAASImVlwdUU+kSgP97bzoJLSEUKaE3QToBpITQAkjvohKSAKGEEAgqdkRcgbWgIoKKoKsiCq5KkbUiim1RVBTrgiwiyrpYsKHyLnAIu/vOe++8OWfOfJnMPzP/f+5/z1wAKIpcsTgdVgQgQ5QjCfP1ZMTExjHwgwABRKAItAGNy8sWs0JCAgEq0/bv8uEegCbsHYuJXP/+/38VJb4gmwcAFIJyIj+bl4HySVRf8sSSHACQvahff3GOeILbUaZJ0AZR7png5CkenuDEScaAyZiIMDbKNAAIZC5XkgwAmYH6Gbm8ZDQP2QNlKxFfKEJZjLJbRkYmH+VjKJugMaiPPJGfmfiXPMl/y5koy8nlJst4ai+TQvASZovTuUv/z+P435KRLp2uYYQqOUXiF4ZaZfTMetIyA2QsSgwKnmYhfzJ+klOkfpHTzMtmx00zn+sVIFubHhQ4zUlCH44sTw4nYpoF2d7h0yzJDJPVSpKwWdPMlczUlaZFyvwpAo4sf15KRPQ05wqjgqY5Oy08YCaGLfNLpGGy/gUiX8+Zuj6yvWdk/2W/Qo5sbU5KhJ9s79yZ/gUi1kzO7BhZb3yBl/dMTKQsXpzjKaslTg+RxQvSfWX+7Nxw2doc9IGcWRsiO8NUrn/INAM2yATpqEoAAwSiv7wAyBEsyZnYCDtTvFQiTE7JYbDQGyZgcEQ8y9kMGysbWwAm7uvU4/COPnkPIfq1GV/+ewBc+ePj46dnfIEGAJxcBwDp+YzP+CwA8qoAXCnmSSW5U77Ju4QFJKAAaEAdfRfoAxNgAWyAA3ABHsAb+INgEAFiwULAAykgA+18MVgO1oBCUAw2g+2gAlSBfeAQOAqOg2ZwGlwAl8F1cAt0g0egFwyAV2AEfABjEAThIQpEhdQhHcgQModsICbkBnlDgVAYFAslQMmQCJJCy6G1UDFUClVA1VAt9DN0CroAXYW6oAdQHzQEvYW+wAhMhmmwFmwEz4GZMAsOgCPgBXAynAXnwQXwRrgcroGPwE3wBfg63A33wq/gUQQgcggd0UUsECbCRoKROCQJkSArkSKkDKlB6pFWpAO5g/Qiw8hnDA5DxTAwFhgXjB8mEsPDZGFWYkowFZhDmCZMO+YOpg8zgvmOpWA1seZYZywHG4NNxi7GFmLLsAewjdhL2G7sAPYDDoej44xxjjg/XCwuFbcMV4LbjWvAncd14fpxo3g8Xh1vjnfFB+O5+Bx8IX4n/gj+HP42fgD/iSBH0CHYEHwIcQQRIZ9QRjhMOEu4TRgkjBEViYZEZ2IwkU9cStxE3E9sJd4kDhDHSEokY5IrKYKUSlpDKifVky6RHpPeycnJ6ck5yYXKCeVWy5XLHZO7Itcn95msTDYjs8nxZCl5I/kg+Tz5AfkdhUIxonhQ4ig5lI2UWspFylPKJ3mqvKU8R54vv0q+Ur5J/rb8awWigqECS2GhQp5CmcIJhZsKw4pERSNFtiJXcaVipeIpxfuKo0pUJWulYKUMpRKlw0pXlV4o45WNlL2V+coFyvuULyr3UxGqPpVN5VHXUvdTL1EHaDiaMY1DS6UV047SOmkjKsoqdipRKktUKlXOqPTSEboRnUNPp2+iH6ffo39R1VJlqQpUN6jWq95W/ag2S81DTaBWpNag1q32RZ2h7q2epr5FvVn9iQZGw0wjVGOxxh6NSxrDs2izXGbxZhXNOj7roSasaaYZprlMc5/mDc1RLW0tXy2x1k6ti1rD2nRtD+1U7W3aZ7WHdKg6bjpCnW0653ReMlQYLEY6o5zRzhjR1dT105XqVut26o7pGetF6uXrNeg90SfpM/WT9Lfpt+mPGOgYzDNYblBn8NCQaMg0TDHcYdhh+NHI2CjaaL1Rs9ELYzVjjnGecZ3xYxOKibtJlkmNyV1TnCnTNM10t+ktM9jM3izFrNLspjls7mAuNN9t3jUbO9tptmh2zez7FmQLlkWuRZ1FnyXdMtAy37LZ8vUcgzlxc7bM6Zjz3creKt1qv9Uja2Vrf+t861brtzZmNjybSpu7thRbH9tVti22b+zM7QR2e+x67Kn28+zX27fZf3NwdJA41DsMORo4JjjucrzPpDFDmCXMK05YJ0+nVU6nnT47OzjnOB93/tPFwiXN5bDLi7nGcwVz98/td9Vz5bpWu/a6MdwS3Pa69brrunPda9yfeeh78D0OeAyyTFmprCOs155WnhLPRs+PbGf2CvZ5L8TL16vIq9Nb2TvSu8L7qY+eT7JPnc+Ir73vMt/zfli/AL8tfvc5Whwep5Yz4u/ov8K/PYAcEB5QEfAs0CxQEtg6D57nP2/rvMdBhkGioOZgEMwJ3hr8JMQ4JCvkl1BcaEhoZejzMOuw5WEd4dTwReGHwz9EeEZsingUaRIpjWyLUoiKj6qN+hjtFV0a3RszJ2ZFzPVYjVhhbEscPi4q7kDc6Hzv+dvnD8TbxxfG31tgvGDJgqsLNRamLzyzSGERd9GJBGxCdMLhhK/cYG4NdzSRk7grcYTH5u3gveJ78LfxhwSuglLBYJJrUmnSi2TX5K3JQynuKWUpw0K2sEL4JtUvtSr1Y1pw2sG08fTo9IYMQkZCximRsihN1J6pnbkks0tsLi4U92Y5Z23PGpEESA5kQ9kLsltyaOhgdENqIl0n7ct1y63M/bQ4avGJJUpLREtuLDVbumHpYJ5P3k/LMMt4y9qW6y5fs7xvBWtF9UpoZeLKtlX6qwpWDaz2XX1oDWlN2ppf863yS/Pfr41e21qgVbC6oH+d77q6QvlCSeH99S7rq37A/CD8oXOD7YadG74X8YuuFVsVlxV/LeGVXPvR+sfyH8c3Jm3s3OSwac9m3GbR5ntb3LccKlUqzSvt3zpva9M2xraibe+3L9p+tcyurGoHaYd0R295YHnLToOdm3d+rUip6K70rGzYpblrw66Pu/m7b+/x2FNfpVVVXPVlr3BvT7VvdVONUU3ZPty+3H3P90ft7/iJ+VPtAY0DxQe+HRQd7D0Udqi91rG29rDm4U11cJ20buhI/JFbR72OttRb1Fc30BuKj4Fj0mMvf074+d7xgONtJ5gn6k8antzVSG0saoKaljaNNKc097bEtnSd8j/V1urS2viL5S8HT+uerjyjcmbTWdLZgrPj5/LOjZ4Xnx++kHyhv21R26OLMRfvtoe2d14KuHTlss/lix2sjnNXXK+cvup89dQ15rXm6w7Xm27Y32j81f7Xxk6Hzqabjjdbbjndau2a23X2tvvtC3e87ly+y7l7vTuou+te5L2e+/H3e3v4PS8epD948zD34dij1Y+xj4ueKD4pe6r5tOY3098aeh16z/R59d14Fv7sUT+v/9Xv2b9/HSh4TnleNqgzWPvC5sXpIZ+hWy/nvxx4JX41Nlz4h9Ifu16bvD75p8efN0ZiRgbeSN6Mvy15p/7u4Hu7922jIaNPP2R8GPtY9En906HPzM8dX6K/DI4t/or/Wv7N9Fvr94Dvj8czxsfFXAl3chRAUIWTkgB4exAASiwA1Fvo/DB/ap6eFGjqG2CSwH/iqZl7UhwAqEfNxFjEPg/AMVSNVqO5PQCYGIkiPABsayvT6dl3ck6fEBz6xbLXbYK61ZJw4B8yNcP/pe9/WjCR1Q780/4L7LkF2z1TbFMAAAA4ZVhJZk1NACoAAAAIAAGHaQAEAAAAAQAAABoAAAAAAAKgAgAEAAAAAQAAAYqgAwAEAAAAAQAAAMQAAAAAG0uxfAAAG0pJREFUeAHtnQeQFMXbhxsTJhADJlAP0FIwHSawVDwD6l8MKKgfxkNLQS3EUJjRQ9FS0RKwSkUtOUOBARQVDKDFYQQjJjCBp4LZEsEEpq9/I7POzs3tze7O3OzsPW9VMz0z3T3vPKP9245nDAYBCEAAAhCAAAQgAAEIQAACEIAABCAAAQhAAAIQgAAEIAABCEAAAhCAAAQgAAEIQAACEIAABCAAAQhAAAIQgAAEIAABCEAAAhCAAAQgAAEIQAACEIAABCAAAQhAAAIQgAAEIAABCEAAAhCAAAQgAAEIQAACEIAABCAAAQhAAAIQgAAEIAABCEAAAhCAAAQgAAEIQAACEBCBVmWAocK+w842VHreRdcUXNO9du4JRwhAAAIREqjzlLXExud6zuttfJYNOqbW0igU+1raqvirVgYEwILAIACBkiYgAalbGSQkEo/UWBqEQqJwpA1VK4M9YBCAAARST6DOvoHCPTbU21CyVspCUWWpXWmDjhgEIACBciZQZ19uhA06lpyVolCcYinV2FBhQyjr0aOH6datm2nbtq2TvkOHDqZjx46ZvN57mYtEIAABCERAYPbs2ZlSli5daubPn++cKz5v3jwzZ86czP0QEXVLjbbhnhBpmy1JKQmFWg/VNlTY0Ki1adPG9OzZ0xEGCYTiGAQgAIFSJiAxkWBIOBRftmxZU+7W2wQSjDFNJWyO+6UgFBX2RR+1QWMRgaYWwsCBAzMCEZiIixCAAARSQkCCMWPGDDNp0iSzePHiXF6rhXGUDfW5EsV9L2mhqLIvKJFoF/SiXbt2dQSif//+Qbe5BgEIQCD1BCQWY8aMySUYS+xLSizqknrZJIVCXU01QS+uLqWhQ4fSrRQEh2sQgEBZElCXlAQjx5hGjX3xEUm8fBJCodbDeBv6+l9YXUzjxo1zxh/89ziHAAQg0BIISDCGDRvWWAtjimUw0Aa1MprNmlsoJBIzbaj0v2Hv3r3NqFGjMjOX/Pc5hwAEINBSCGjG1KBBgxprXcy1HPazodnEYtVmBv+UfV6DaUrqZho5cqRp3bp1M7vD4yAAAQiUHgHVhe7YbEBX1KbW4+1seLC5PG9OoaixL1XtfTFNda2trc0A8d4jDgEIQKClE9D0f03qmTVrllmxYoUXh4RCPUJ13otxxZur66mvfQHNbsqYRGLixImMR2SIEIEABCAQTEDTaQcMGBC0/kJdUHXBuaK72hwtigrrrrqc1vS6rZZE9+7dvZeIQwACEIBAAIH27dubLl26mKlTp/rv6ke4uqBiHa+IWyja2ReQSFTYkDGNSbj9b5mLRCAAAQhAoFECEgqZb8xCP8CrbBhnQ2wWt1BcbD3/P6/3mt2kgWsMAhCAAATyI6AxC02f9a3m1uD2TzbMzq+08KnjHqP41LpS4bqjdRLTpk1jCqwLhCMEIACBPAlo6myfPn38YlFvi+mUZ1Ghk68SOmX+CattlgpvNtZJeGkQhwAEIJA/Ae2SrbrUZxX2vNp3LbLTOIVCW3RkjJ1eMyiIQAACECiKgLqgVKf6bKjvPLLTuISiynpY4fVSA9gYBCAAAQhEQyCgTq20JVdFU3p2KXEJRVZrQmMT/N2IbPCcQQACECiGgOpU1a0+y6p7ffcKPo1DKBqoWoDyFewwGSEAAQhA4F8CAXVrlb1T8e/d6P6NQyiqve5J8Vgz4SVCHAIQgEA0BFS3BrQqqqMp/b9S4hAKtSgyhkhkUBCBAAQgEDmBgDq2KuqHxCEU+3qd7Nevn/eUOAQgAAEIREhAi5h9llUH++4VdBq1UFR5vdDGfx07dvReIg4BCEAAAhES6Natm1Fd67Mq33lRp7EKBTOdivo2ZIYABCAQikBAXZs1BBCqkByJohaKLOcCFoTkcIVbEIAABCBQCAG1KnxW5Tsv6jRqocjqGwtwvihnyQwBCEAAAg0JBPwoz6qLG+bI70qr/JLnTK3WxFveFAsXLvSeEocABCAAgZgIdO7c2V9yJ3uh3n+xkPMoWxQVXgcCFM57mzgEIAABCERIIKDOzRoKKOZRUQpFllMBgyvF+EleCEAAAhDIQSCgqz+rTs6RtclbUQpFkw8jAQQgAAEIxENA24/HZQhFXGQpFwIQgECZEIhSKCq8TLp27eo9JQ4BCEAAAjESCNjzqSKqx8UmFHE2g6J6ecqBAAQgUC4EAnbBqIjq3aIUiqh8ohwIQAACECghAghFCX0MXIEABCBQigSiXHD3o33Bdu5LstjOJcERAhCAQPwEli5daiors2bELrFPXT+KJ0fZosiIRBSOUQYEIAABCIQnEDAuHFmdHKVQhH8jUkIAAhCAQGoIIBSp+VQ4CgEIQCAZAghFMtx5KgQgAIHUEEAoUvOpcBQCEIBAMgQQimS481QIQAACqSGAUKTmU+EoBCAAgWQIIBTJcOepEIAABFJDAKFIzafCUQhAAALJEEAokuHOUyEAAQikhgBCkZpPhaMQgAAEkiGAUCTDnadCAAIQSA0BhCI1nwpHIQABCCRDAKFIhjtPhQAEIJAaAghFaj4VjkIAAhBIhgBCkQx3ngoBCEAgNQQQitR8KhyFAAQgkAwBhCIZ7jwVAhCAQGoIIBSp+VQ4CgEIQCAZAghFMtx5KgQgAIHUEEAoUvOpcBQCEIBAMgQQimS481QIQAACqSGwWmo8LXFH//nnH/Pee+85Qa7usMMOTmjVqlWJe457EIAABHITQChy82ny7qeffmpGjhxpnn/+efPXX39lpV911VVNr169zGWXXWY6d+6cdY8TCEAAAmkhQNdTEV/q3nvvNQcffLCZOXNmA5FQsRIO3TvkkEOM0mIQgAAE0kiAFkWBX+2WW24xN998c6jcf/75p6mpqTE//fSTGTJkSKg8JIIABCBQKgRoURTwJd56663QIuEtXsKivBgEIACBNBFAKAr4Wtdcc00Buf7NUkzegh9KRghAAAJFEEAo8oT37rvvmjfffDPPXP8lV16VgUEAAhBICwGEIs8vpSmwxVoUZRTrA/khAAEIhCXAYHZYUivTvf/++3nmaJg8ijIaltp8V37++WczYcIE54E9evQwO++8c86Ha8bX77//brbeemuz//7750zLTQhAoPQItCihmDFjhtPto1/0W265pbMgrl+/fiafRXHffvtt0V8x3zL+/vtv88gjjzi+f/HFF47fO+64o+ndu3fRvhRSwI8//miuu+46J+tFF13UpFBoxpesT58+CIVDgn8gkC4CLUIovv/+e2dR3OOPP97g69x5553m8ssvN/vss0+De0EXtt9+e/Pss88G3Qp9TWWEtRdeeMFcffXV5pNPPslkqaurc+JHHHGE4/tGG22UuUcEAhCAQNQEWsQYxdlnn22CREIwP/74Y3PKKaeYd955JxRbbc1RrIUtQz7JN69IeJ+td9K7YRCAAATiJFD2QqGFca+99lqTDLUNRxgLW8nnKitsGWF80rvpHdNu6s7Kt0tu+fLlZsWKFXm/+tKlS81vv/3WIN8ff/xhvvzyS6NyMQhA4D8CZS8UTzzxxH9vmyP2+uuvm/nz5+dI8e+tTTbZxAwdOrTJdI0lUF6V0ZTJF/kUxsK+Y5iymjONxEFiqPGWXXfd1fTs2dOJn3rqqWbhwoWBrqiCv/76682hhx5qunbtarbbbjtzzDHHOGIZVPlfeumlTlqN8cydO9fZcqWystLcdNNNmfLVladuvG233dbsvffeTrkHHHCAueOOO4zGhzAItHQCZS0Uy5Yta7TbJujDh522qspeFVu+pjxhRSasL/JBXVN61zSZ/O3fv7+5++67zS+//JJxXXFV3AceeKCZM2dO5roi9fX1pm/fvmbcuHHmgw8+yNx74403nJXyJ554otF4lNcWLFjgpH3ppZfM0Ucf7XQ1eu8/+uijRsLk563NHjVgT9eelxbxlkqgrIUi3y4ETeEMaxoA13TPsKa0yhPW8vFFZeb7rmH9iCvdAw88YFQZy9ytTT788EPz4IMPOjPSdH3EiBE6OKZf9ueee26motcK91deecWZWHDJJZc4abQ9yplnnrkyR/ZBgiDTTLHhw4c7M7C0B9cFF1zgXFdL4sknn3TKV0tu0KBBzvVnnnkmrx8bTib+gUCZEShrodBsoI4dO4b+ZOoCCWtaO/D000+b6urqJrMojdI2td7AW1A+vugd0zbzafbs2c7r7rTTTubII4806623nll99dXN7rvvbs477zznnloNrmBOmzYtM+FArZABAwY4XXjavv300093Nl1UJrUuGhv813bvao0MHDjQdO/e3ai14ZpaFerG0tbwG2ywgRk2bFhGsKZPn+4m4wiBFkmg7KfHVlVVmfvvv7/Jj7vVVls5/eNNJvQkWGWVVcwVV1zhTK3VthzqvnC7MDRgraAKf7/99vPkChdVPvn02WefNZlB75g2U2Us08wutSIkFmuuuaZz7fDDD8+sEXGvTZ061bknYQl6X+Vx12tovYy/tdepU6cGou6WrYI1HrHFFluYLl26OM/Rt5W4qyUj8cAg0JIJlL1QqLvnxRdfdPq3c31opSu0QpAQFCIGufyRL/JJv5ZzWUVFRV5dWrnKCnuvUE7efBo8njx5svNIdR1pUHvfffc1e+65p3P0twTVLSVbsmSJufHGG514Y/8sWrSowS2ND3mfrwQSYrUs1GWlFo66pdSq0B+b2muvvcxuu+1m1l577QZlcQECLY1A2QvFGmusYUaNGuVURG+//XaD76v7qpA1y6XUTD5dddVVju9B00DVlSXf9Q7NaW3atMk8TjOXcpl37KRdu3aZpFrgqG4gjTV8/vnnzoC2xggUZGqNaYxCFbn+AJTSyHS89dZbnXhj/3gHx9006667rhvNOo4fP955jjuGoe4uBbUwZIMHD3bGMfwik1UIJxAocwJlLxT6fvo1qYpAFYzbPaRuBlVG6uvWr/J8TRXkV199FRj097M322yzwOB2uYR9nmby6NetBn/lu7uFh3w/66yzwhYTaTpvpdvUGhXveIH/3fULXmKova9efvllZ3Baf1JWpnc9+eSTjcYHNt1004z/+sXfVCtLLYWw1rZtW2eqrAa4XR+ee+458/XXXztF3H777U7308UXXxy2SNJBoOwItAihcL9asRWrfs2q4tJMGA2aFmK77LKL08Vx0EEHGfWbhzGlc2f2hEkfdxrtjSWfNGtJ3TZav7DWWmsFPta7NkX7a8kkpPPmzXPiGozWeIyCZhr9+uuvzpoItTbUMlCX0FFHHeWIusRDXU+aIhu0P9dHH31ktGhu8803d8pu6p9vvvnGmU4r4ZO4aG2GgrZMkd8Sqh9++MHpIkMomqLJ/XImsEo5v1wU7yZxuOuuu5xFXRpEvfbaawsWCfmjv0ehBWP6Ja0K8Lbbbmt0lk4U/sdVhjb4c+3hhx92o1lHtbo0Q8k1dz8tdUdp8FnBv1hQYwLurCfl++6775zs3bp1c476pS9B8JtERH+bXGW6M6r8afznDz30kJNe6zn8C+u0mO+0005zskgs/Pf9ZXEOgXIm0OKEQr8i9StYXThB/f7ej60NA1WhFysO3jK9cY2ZaPxErQsJRi5T5arpnPJd75C0adfdddZZx3FDs43Up6+uOJn+NrjWOJxwwgmZhXHHHnus2XDDDZ37mm2k2Uuy2traBu8zc+ZM557+UReb7IwzznCO+ueGG27IWmCoVdzuegj5FDQrKpPZE3F9kBBMnDjRc8cYbaWuLiiZui41CwqDQEsl0CrCF//HW1ZjWzB408QdV/+4Kh2FxYsXO/v4aGDUtY033tjpctD0TL/p16S3wvLfj+Ncs340uOo3bVEhnt6BYw2uqoulQ4cOTneJfq3n0zfvf0Yh5/oVrzEe7+CxKmrvucpV62P06NFZs460+lprF2TKo+07NEiu1oA7PqAKWmMz7kDy2LFjnXLcPKrotc5C4unaPffck7UT8HHHHefs9VVdXe1MZXbT6aj/FiRgbn6Nf2hnX/234m2V3Hfffc44kTcvcQiUIgF15foskjo+kkJWOlYyQjFmzBgza9YsZ28fH7QGp5pZc9JJJ2Vd1/5AqqCSMFVc7t96cJ+vXWK1Krkp22OPPZzppWG3CWmqvDD3Vck21uJSC0IioZlZq63WcDhMFfCVV14Z+Bjl0xqV9u3bZ91/7LHHnPL8YrTNNtsY/W0M/x9GOv74451KX6IkP/ymVpCuB/0okP/yQd1ZGATSQAChCPmVNBAZ9Ks8KLs2gXvqqaeybmkF8JAhQ7KuNfeJdoP1jgHo+dqnSJvahTENwrqLz8KkjyKNBpE1dqBBYM1u0i/zMJsfas8nvZfGgjQOoBaSZqEF/AefcVOD53qWtohXN5YGyTUYHjTAncnURERlyQftHquWjdZxaFyEdRRNgON2SREI+P8mksZAJIWsJJV4i+L88883U6ZMCf3h1K/t3/RNXSn+zehCFxhRQrUM/C0aTdNU33xY00pn7aGEQQACLYdAXEJRNiN0qtzzEQn9p7P++utn/RekX6lJi4QcevXVV427Etl10L9S2b3e2FFdNOp+wyAAAQgUS6BshMI7+BgWinelsPJoG+tSMb8vYddceP3XgDEGAQhAoFgCZSMU7tYP+QDRjqVeC7MBnzd9nHG/LwFNyiYfT4uiSUQkgAAEQhAoG6HQYGS+5p+Jo1XBpWL+v9bW2MrnXP76WyW50nIPAhCAQGMEykYoGntBrkMAAhCAQHEEEIri+JEbAhCAQNkTQCjK/hPzghCAAASKI9BwuWxx5SWWO6rVyFGVEweIUvYtjvelTAhAoDQIlNWCu9JAihcQgAAEkiEQMDsykjqerqdkvidPhQAEIJAaAghFaj4VjkIAAhBIhgBCkQx3ngoBCEAgNQQQitR8KhyFAAQgkAwBhCIZ7jwVAhCAQGoIIBSp+VQ4CgEIQCAZAghFMtx5KgQgAIHUEEAoUvOpcBQCEIBAMgQQimS481QIQAACqSGAUKTmU+EoBCAAgWQIIBTJcOepEIAABFJDAKFIzafCUQhAAALJEEAokuHOUyEAAQikhgBCkZpPhaMQgAAEkiGAUCTDnadCAAIQSA0BhCI1nwpHIQABCCRDAKFIhjtPhQAEIJAaAghFaj4VjkIAAhBIhgBCkQx3ngoBCEAgNQQQitR8KhyFAAQgkAwBhCIZ7jwVAhCAQGoIIBSp+VQ4CgEIQKBxAkuXLvXf/Ml/odDzKIVilteJ2bNne0+JQwACEIBAjATmzZvnL32u/0Kh51EKRaE+kA8CEIAABEqYAEJRwh8H1yAAAQiUAoEohWKJ94UC+su8t4lDAAIQgECEBBYtWuQvrd5/odDzKIUiqz9s/vz5hfpEPghAAAIQyJPA4sWL/Tnq/RcKPY9SKAr1gXwQgAAEIFDCBBCKEv44uAYBCECgFAhEKRT13hdieqyXBnEIQAAC8RIIqHOzhgOKeXqrYjL78lba87e81xYuXOg9JQ4BCEAAAjER6Ny5s7/kTvZCvf9iIedRtiikXlkrAQMUrhAfyQMBCEAAAjkIBNS1qovrc2TJ61aUQqEH13mfHrBS0HubOAQgAAEIREAgoK6ti6DYTBFRC0VWn9icOXMyDyICAQhAAALxEAioa+uifFLUQpHlXIDzUfpOWRCAAAQgYAkE1LVZP9qLhRSrUGh1dsBqwWJ9Jj8EIAABCKwkoDo2YCeMuigBRS0U8i1rF9np06dH6S9lQQACEICAh8DkyZM9Z040qw723yzkPA6hyGry1NbWFuIXeSAAAQhAIASBAKGoC5EtryRxCEWt1wM1iyZNmuS9RBwCEIAABCIgoLo1oHu/NoKis4qIQyjUoshq+tCqyGLOCQQgAIFICIwdO9Zfjureev/FYs/jEAr5VON1THN8AxaEeJMQhwAEIACBPAioTg1oTdTkUUTopHEJRZ314DOvFwHK571NHAIQgAAE8iAQUKe+bbPX5VFE6KRxCYUcqPF6IfULWD3oTUIcAhCAAARCEFB9GtBLMzpE1oKStCooV/hM9TbpVm7yjh07mqlTp5q2bdu6lzhCAAIQgEAeBLRm4rDDDvN3O6kHpyKPYvJKGmeLQo7Uer1Rf9qFF17ovUQcAhCAAATyIDB48GC/SCh3bK0JFb6q/onRNAPqfzZs6j5jwYIFTrRnz57uJY4QgAAEIBCCwJgxY0zAugmNTZxrw+8hiigoSdxdT3KqwgYJxno2ZGzChAkGscjgIAIBCEAgJwHtcqHWhM+0nXilDfW+65Gext31JGfrbai2Icv0wgxuZyHhBAIQgEAgAdWVjXTbV9sM9YGZIrwYd9eT6+oHNqLWS5V7Yfny5c7AdmVlpdEgNwYBCEAAAg0JuC2JgI3/RtjUtzfMEf2V5hIKeV5nw342VNjgmMTC7W+jG8qlwhECEIDAvwQ0JjF8+HCjutJns+x5te9abKfNKRR6iSk2ZA1u66L2Up8/f77p1auXad26tS5hEIAABFosAbUeBg4cmPkh7QOhwetDbIht8Nr3PNMcYxTeZy6xJ1U2SA2zTM0rzQ1m3CILCycQgEALI6A6UHVhwII6kXjMhiobVJc2m7Vqtic1fFCNvXRlw8vGmQ11zjnnMCsqCA7XIACBsiQgYdC2HI0IhN55hA01ijS3JSkUete+NtTakDV11p471q1bN6f51a9fP/cSRwhAAAJlRUDjtOPHj8/Vm6IpsKor65J68aSFQu9dYcMUG3a2IdA0K0r9db1792aGVCAhLkIAAmkioF0qZsyY4QhEwA6w3lfReIREot57sbnjpSAUeud2NpxrQ7UNmb2hbLyBaZ8ozZDq0aOHUYtDRwwCEIBAKRPQhB2NPeiorqWAqa5+9z+zF0avDP57zX5eKkLhffFqe1JjQ07BsPcz5gqHe0EtEO/ajK5du7IRoQuHIwQgECkBVf6uSQC8E3JcYXDvhziqBSGBqA2RttmSlKJQuC9fZSM1NuxrAwYBCECgnAnMsi9XY0OdDSVnpSwULqxKG6m2QUdEw0LAIACBsiAgcZhrg1oQ9TaUrKVBKPzwquwFBQmHjoEzpux1DAIQgECpENDMpTobJAw6KqTG0igUfrgSjAobdHStwkYUXNM9BMWlwRECEIiSwCxPYUtsfK7nvH7lufea5zZRCEAAAhCAAAQgAAEIQAACEIAABCAAAQhAAAIQgAAEIAABCEAAAhCAAAQgAAEIQAACEIAABCAAAQhAAAIQgAAEIAABCEAAAhCAAAQgAAEIQAACEIAABCAAAQhAAAIQgAAEIAABCEAAAhCAAAQgAAEIQAACEIAABCAAAQhAAAIQgAAEIAABCEAAAhCAAAQgAAEIQAACEIBAmgj8P2AwD53EiF+5AAAAAElFTkSuQmCC;" parent="1" vertex="1">
          <mxGeometry x="-430" y="842" width="192.98" height="96" as="geometry" />
        </mxCell>
        <mxCell id="LWVo2LH_kEMohsG8tE7q-48" value="HTTPS" style="text;html=1;strokeColor=none;fillColor=none;align=center;verticalAlign=middle;whiteSpace=wrap;rounded=0;" parent="1" vertex="1">
          <mxGeometry x="-190" y="852.9" width="60" height="30" as="geometry" />
        </mxCell>
      </root>
    </mxGraphModel>
  </diagram>
</mxfile>
